<svg focusable="false" role="img" aria-label="Javascrip" xmlns="http://www.w3.org/2000/svg"
  fill="rgb(240 160 30 / 0.98)"
  fill-rule="evenodd" clip-rule="evenodd"
  viewBox="0 0 40 40">
  <path
    d="M4 7c0-1.6569 1.3431-3 3-3h26c1.6569 0 3 1.3431 3 3v26c0 1.6569-1.3431 3-3 3H7c-1.6569 0-3-1.3431-3-3V7Zm3-1c-.5523 0-1 .4477-1 1v26c0 .5523.4477 1 1 1h26c.5523 0 1-.4477 1-1V7c0-.5523-.4477-1-1-1H7Z M25.0875 17.8618a6.0984 6.0984 0 0 1 2.325 0c.7615.1489 1.481.4458 2.0786.8819.4462.3256.5439.9511.2183 1.3973-.3255.4461-.9511.5438-1.3972.2183-.3333-.2432-.7734-.4349-1.2835-.5346a4.096 4.096 0 0 0-1.5574 0c-.5101.0997-.9502.2914-1.2835.5346-.3329.243-.5298.5143-.6213.7636-.0887.2415-.0887.4857 0 .7272.0915.2493.2884.5206.6213.7636.3333.2432.7734.4349 1.2835.5346l.0267.0052 1.9424.4909c.7512.1506 1.4604.4456 2.0507.8763.598.4364 1.0707 1.0112 1.3198 1.6899.2521.6865.2521 1.4193 0 2.1059-.2491.6786-.7218 1.2534-1.3198 1.6898-.5976.4361-1.3171.733-2.0786.8819a6.0984 6.0984 0 0 1-2.325 0c-.7615-.1489-1.481-.4458-2.0786-.8819-.598-.4364-1.0707-1.0112-1.3198-1.6898-.1904-.5185.0756-1.0931.594-1.2835.5184-.1903 1.093.0756 1.2834.5941.0915.2493.2884.5206.6213.7636.3333.2432.7734.4349 1.2835.5346a4.096 4.096 0 0 0 1.5574 0c.5101-.0997.9502-.2914 1.2835-.5346.3329-.2429.5297-.5143.6213-.7636.0887-.2415.0887-.4857 0-.7272-.0915-.2493-.2884-.5206-.6213-.7636-.3333-.2432-.7734-.4349-1.2835-.5346l-.0267-.0052-1.9424-.4909c-.7512-.1506-1.4604-.4456-2.0507-.8763-.598-.4364-1.0707-1.0112-1.3198-1.6899-.2521-.6865-.2521-1.4193 0-2.1059.2491-.6786.7218-1.2534 1.3198-1.6898.5976-.4361 1.3171-.733 2.0786-.8819ZM18.125 17.75c.5523 0 1 .4477 1 1v8.75a3.4998 3.4998 0 0 1-4.8394 3.2336 3.5006 3.5006 0 0 1-1.8942-1.8942A3.4998 3.4998 0 0 1 12.125 27.5c0-.5523.4477-1 1-1s1 .4477 1 1a1.4995 1.4995 0 0 0 .926 1.3858 1.4995 1.4995 0 0 0 1.6347-.3251A1.5018 1.5018 0 0 0 17.125 27.5v-8.75c0-.5523.4477-1 1-1Z" />
</svg>